<svg width="18" height="18" viewBox="0 0 18 18" fill="none" xmlns="http://www.w3.org/2000/svg">
<circle cx="8.88999" cy="8.88999" r="8.88999" fill="#C7C8CC"/>
<path d="M4.75661 11.7446V9.93799H2.94997V8.58057H4.75661V6.77393H6.1238V8.58057H7.93044V9.93799H6.1238V11.7446H4.75661ZM11.8655 12.8774C10.2541 12.8774 9.10667 11.9888 9.09203 10.7192H10.7717C10.7864 11.1929 11.2453 11.5151 11.8752 11.52C12.5002 11.5151 12.9494 11.1636 12.9397 10.6509C12.9494 10.1382 12.4709 9.77686 11.7287 9.77197H11.0452V8.58057H11.7287C12.3733 8.58545 12.8225 8.23877 12.8225 7.73096C12.8225 7.25244 12.4416 6.91553 11.8752 6.91064C11.2942 6.91553 10.8401 7.24756 10.8303 7.74072H9.22874C9.24828 6.48584 10.3616 5.61182 11.885 5.61182C13.3938 5.61182 14.4289 6.48096 14.4241 7.6333C14.4289 8.42432 13.8528 8.97607 13.0373 9.09814V9.14697C14.1213 9.27881 14.6926 9.89893 14.6877 10.7778C14.6926 12.0034 13.5159 12.8774 11.8655 12.8774Z" fill="#5C677C"/>
</svg>
